<svg width="38" height="46" viewBox="0 0 38 46" fill="none" xmlns="http://www.w3.org/2000/svg">
<g clip-path="url(#clip0)">
<path d="M38 10.2695V43.6142C38.0001 43.9274 37.9418 44.2375 37.8285 44.5268C37.7152 44.8162 37.5491 45.0791 37.3396 45.3005C37.1302 45.522 36.8816 45.6976 36.6079 45.8174C36.3343 45.9372 36.041 45.9989 35.7448 45.9988H7.03476C6.73853 45.999 6.44519 45.9374 6.17148 45.8176C5.89777 45.6978 5.64907 45.5222 5.43958 45.3007C5.23009 45.0793 5.06393 44.8164 4.95059 44.527C4.83725 44.2376 4.77895 43.9274 4.77902 43.6142V19.4502H0.948161C0.696641 19.4501 0.455474 19.3443 0.277676 19.1562C0.0998776 18.9681 6.41724e-07 18.713 6.87198e-07 18.4471V9.35021C-0.000149345 9.21847 0.024269 9.088 0.0718583 8.96626C0.119448 8.84451 0.189274 8.73388 0.277341 8.64071C0.365408 8.54753 0.469988 8.47363 0.585095 8.42323C0.700202 8.37284 0.823578 8.34694 0.948161 8.34702H4.77902V2.3846C4.77933 1.75216 5.0171 1.14572 5.44008 0.698574C5.86306 0.251426 6.43664 0.000159829 7.03476 0L29.2173 0C29.5387 0.00019444 29.8563 0.0729442 30.149 0.213385C30.4417 0.353826 30.7027 0.558722 30.9145 0.814373L37.4421 8.69871C37.8017 9.13367 37.9999 9.69179 38 10.2695Z" fill="white"/>
<path d="M37.4423 8.69871L30.9147 0.814373C30.703 0.558722 30.442 0.353826 30.1493 0.213385C29.8566 0.0729442 29.5389 0.00019444 29.2175 0L7.03503 0C6.43692 0.000159829 5.86334 0.251426 5.44035 0.698574C5.01737 1.14572 4.7796 1.75216 4.7793 2.3846V43.6142C4.77922 43.9274 4.83752 44.2376 4.95086 44.527C5.0642 44.8164 5.23037 45.0793 5.43985 45.3007C5.64934 45.5222 5.89804 45.6978 6.17175 45.8176C6.44546 45.9374 6.73881 45.999 7.03503 45.9988H35.7451C36.0413 45.9989 36.3346 45.9372 36.6082 45.8174C36.8819 45.6976 37.1305 45.522 37.3399 45.3005C37.5493 45.0791 37.7155 44.8162 37.8288 44.5268C37.9421 44.2375 38.0004 43.9274 38.0003 43.6142V10.2695C38.0002 9.69179 37.802 9.13367 37.4423 8.69871ZM29.2546 2.43347L35.57 10.0584H29.2546V2.43347ZM35.7451 43.6142H7.03503V2.3846H26.9989V10.0584C26.9988 10.3716 27.0571 10.6818 27.1704 10.9712C27.2838 11.2606 27.4499 11.5235 27.6594 11.745C27.8689 11.9664 28.1176 12.1421 28.3913 12.2618C28.665 12.3816 28.9584 12.4432 29.2546 12.443H35.7451V43.6142Z" fill="#333333"/>
<path d="M22.5567 9.3502V18.447C22.5567 18.713 22.4569 18.9681 22.2791 19.1562C22.1013 19.3443 21.8601 19.4501 21.6086 19.4502H0.948161C0.696641 19.4501 0.455474 19.3443 0.277676 19.1562C0.0998776 18.9681 6.41724e-07 18.713 6.87198e-07 18.447V9.3502C-0.000149345 9.21847 0.024269 9.088 0.0718583 8.96625C0.119448 8.84451 0.189274 8.73388 0.277341 8.6407C0.365408 8.54752 0.469988 8.47362 0.585095 8.42323C0.700202 8.37283 0.823577 8.34694 0.948161 8.34702H21.6086C21.7332 8.34694 21.8565 8.37283 21.9716 8.42323C22.0868 8.47362 22.1913 8.54752 22.2794 8.6407C22.3675 8.73388 22.4373 8.84451 22.4849 8.96625C22.5325 9.088 22.5569 9.21847 22.5567 9.3502Z" fill="#FC2130"/>
<path d="M31.3844 24.5892H11.0424C10.9942 24.5892 10.9551 24.6306 10.9551 24.6815V26.9389C10.9551 26.9898 10.9942 27.0312 11.0424 27.0312H31.3844C31.4327 27.0312 31.4717 26.9898 31.4717 26.9389V24.6815C31.4717 24.6306 31.4327 24.5892 31.3844 24.5892Z" fill="#333333"/>
<path d="M31.3844 29.7861H11.0424C10.9942 29.7861 10.9551 29.8275 10.9551 29.8784V32.1358C10.9551 32.1867 10.9942 32.2281 11.0424 32.2281H31.3844C31.4327 32.2281 31.4717 32.1867 31.4717 32.1358V29.8784C31.4717 29.8275 31.4327 29.7861 31.3844 29.7861Z" fill="#333333"/>
<path d="M31.3844 34.9825H11.0424C10.9942 34.9825 10.9551 35.0238 10.9551 35.0747V37.3321C10.9551 37.383 10.9942 37.4244 11.0424 37.4244H31.3844C31.4327 37.4244 31.4717 37.383 31.4717 37.3321V35.0747C31.4717 35.0238 31.4327 34.9825 31.3844 34.9825Z" fill="#333333"/>
<path d="M7.03465 10.9416C6.74891 10.8573 6.45326 10.8167 6.15666 10.8209H3.64648V16.98H4.91298V14.7625H6.22169C6.49654 14.7656 6.77037 14.7266 7.03465 14.6467C7.78313 14.4096 8.28973 13.8082 8.28973 12.8001C8.28973 11.7921 7.80424 11.1829 7.03465 10.9416ZM7.03465 13.0089C6.96219 13.5391 6.56456 13.7002 6.05054 13.7002H4.91298V11.926H6.05796C6.56456 11.926 6.95991 12.1143 7.03465 12.63C7.04464 12.6916 7.04922 12.754 7.04834 12.8164C7.04924 12.8809 7.04465 12.9453 7.03465 13.0089Z" fill="white"/>
<path d="M11.4616 10.8185H9.10547V16.9776H11.4616C13.2684 16.9776 14.2838 15.8791 14.2838 13.898C14.2838 11.917 13.2684 10.8185 11.4616 10.8185ZM11.3041 15.8531H10.3714V11.9441H11.3041C12.4594 11.9441 12.9979 12.6626 12.9979 13.8992C12.9979 15.1359 12.4754 15.8531 11.3041 15.8531Z" fill="white"/>
<path d="M19.2658 11.952V10.8185H15.1582V16.9776H16.435V14.4524H18.8972V13.3786H16.4344V11.952H19.2658Z" fill="white"/>
</g>
<defs>
<clipPath id="clip0">
<rect width="38" height="46" fill="white"/>
</clipPath>
</defs>
</svg>
