<svg width="42" height="42" viewBox="0 0 42 42" fill="none" xmlns="http://www.w3.org/2000/svg">
<path d="M28.9121 18.0469C28.9121 17.1408 28.1776 16.4062 27.2715 16.4062H10.373C9.46693 16.4062 8.73242 17.1408 8.73242 18.0469C8.73242 18.953 9.46693 19.6875 10.373 19.6875H27.2715C28.1776 19.6875 28.9121 18.953 28.9121 18.0469Z" fill="black"/>
<path d="M10.373 22.9688C9.46693 22.9688 8.73242 23.7033 8.73242 24.6094C8.73242 25.5155 9.46693 26.25 10.373 26.25H20.6361C21.5422 26.25 22.2767 25.5155 22.2767 24.6094C22.2767 23.7033 21.5422 22.9688 20.6361 22.9688H10.373Z" fill="black"/>
<path d="M14.2292 38.7188H8.74219C6.93291 38.7188 5.46094 37.2468 5.46094 35.4375V6.5625C5.46094 4.75322 6.93291 3.28125 8.74219 3.28125H28.9128C30.7221 3.28125 32.194 4.75322 32.194 6.5625V16.6523C32.194 17.5585 32.9285 18.293 33.8346 18.293C34.7408 18.293 35.4753 17.5585 35.4753 16.6523V6.5625C35.4753 2.94394 32.5313 0 28.9128 0H8.74219C5.12363 0 2.17969 2.94394 2.17969 6.5625V35.4375C2.17969 39.0561 5.12363 42 8.74219 42H14.2292C15.1353 42 15.8698 41.2655 15.8698 40.3594C15.8698 39.4533 15.1353 38.7188 14.2292 38.7188Z" fill="black"/>
<path d="M38.3807 23.754C36.4617 21.8349 33.3392 21.8348 31.4214 23.7526L22.4142 32.74C22.2229 32.9309 22.0818 33.166 22.0032 33.4245L20.0416 39.8824C19.8677 40.455 20.0192 41.0767 20.437 41.505C20.7501 41.8258 21.1753 42 21.6115 42C21.7574 42 21.9048 41.9805 22.0494 41.9404L28.6713 40.1061C28.9439 40.0306 29.1922 39.886 29.3924 39.6861L38.3808 30.7146C40.2998 28.7956 40.2998 25.6732 38.3807 23.754ZM27.3797 37.0591L24.0482 37.9819L25.0232 34.7721L31.1008 28.708L33.4214 31.0287L27.3797 37.0591ZM36.0618 28.3935L35.7439 28.7107L33.4237 26.3904L33.7405 26.0743C34.3801 25.4346 35.421 25.4346 36.0606 26.0743C36.7003 26.714 36.7003 27.7548 36.0618 28.3935Z" fill="black"/>
<path d="M27.2715 9.84375H10.373C9.46693 9.84375 8.73242 10.5783 8.73242 11.4844C8.73242 12.3905 9.46693 13.125 10.373 13.125H27.2715C28.1776 13.125 28.9121 12.3905 28.9121 11.4844C28.9121 10.5783 28.1776 9.84375 27.2715 9.84375Z" fill="black"/>
</svg>
