<svg width="52" height="52" viewBox="0 0 52 52" fill="none" xmlns="http://www.w3.org/2000/svg">
<path d="M18.3516 5.35107L11.3755 12.3271L8.86816 9.81982L6.57031 12.1177L11.3755 16.9229L20.6494 7.64893L18.3516 5.35107ZM26.0005 9.75V13H48.7505V9.75H26.0005ZM18.3516 18.3511L11.3755 25.3271L8.86816 22.8198L6.57031 25.1177L11.3755 29.9229L20.6494 20.6489L18.3516 18.3511ZM26.0005 22.75V26H48.7505V22.75H26.0005ZM18.3516 31.3511L11.3755 38.3271L8.86816 35.8198L6.57031 38.1177L11.3755 42.9229L20.6494 33.6489L18.3516 31.3511ZM26.0005 35.75V39H48.7505V35.75H26.0005Z" fill="black"/>
</svg>
