<svg width="46" height="46" viewBox="0 0 46 46" fill="none" xmlns="http://www.w3.org/2000/svg">
<g clip-path="url(#clip0)">
<path d="M45.0522 11.9577C44.522 9.98709 42.9683 8.43379 40.9981 7.90315C37.3984 6.91803 22.9996 6.91803 22.9996 6.91803C22.9996 6.91803 8.6011 6.91803 5.0014 7.8656C3.06906 8.39588 1.4775 9.98744 0.947216 11.9577C0 15.557 0 23.0217 0 23.0217C0 23.0217 0 30.524 0.947216 34.0858C1.47785 36.0561 3.03116 37.6097 5.00175 38.1404C8.639 39.1255 22.9999 39.1255 22.9999 39.1255C22.9999 39.1255 37.3984 39.1255 40.9981 38.1779C42.9686 37.6476 44.522 36.094 45.0526 34.1237C45.9998 30.524 45.9998 23.0597 45.9998 23.0597C45.9998 23.0597 46.0377 15.557 45.0522 11.9577Z" fill="#FF0000"/>
<path d="M18.4141 29.918L30.3875 23.0218L18.4141 16.1256V29.918Z" fill="white"/>
</g>
<defs>
<clipPath id="clip0">
<rect width="46" height="46" fill="white"/>
</clipPath>
</defs>
</svg>
