<?xml version="1.0" encoding="iso-8859-1"?>
<!-- Generator: Adobe Illustrator 21.0.0, SVG Export Plug-In . SVG Version: 6.00 Build 0)  -->
<svg xmlns="http://www.w3.org/2000/svg" xmlns:xlink="http://www.w3.org/1999/xlink" version="1.1" id="Capa_1" x="0px" y="0px" viewBox="0 0 512 512" style="enable-background:new 0 0 512 512;" xml:space="preserve" width="512" height="512">
<g>
	<path d="M507.606,422.754l-87.508-87.508l42.427-42.426c3.676-3.676,5.187-8.993,3.992-14.053s-4.923-9.14-9.855-10.784   l-36.7-12.233c0.012-0.25,0.038-0.497,0.038-0.75v-60c0-8.284-6.716-15-15-15s-15,6.716-15,15v50.762L202.104,183.13   c-5.388-1.798-11.333-0.394-15.35,3.624c-4.018,4.018-5.421,9.96-3.624,15.35L245.762,390H195c-8.284,0-15,6.716-15,15   s6.716,15,15,15h60c0.253,0,0.499-0.025,0.749-0.038l12.233,36.7c1.645,4.932,5.725,8.661,10.784,9.855   c5.06,1.196,10.377-0.315,14.053-3.992l42.427-42.426l87.508,87.507c2.929,2.929,6.768,4.394,10.606,4.394   s7.678-1.464,10.606-4.394l63.64-63.64C513.465,438.109,513.465,428.612,507.606,422.754z M433.36,475.787l-87.508-87.507   c-5.857-5.858-15.356-5.858-21.213,0l-35.871,35.871l-67.691-203.073l203.073,67.691l-35.871,35.871   c-5.853,5.852-5.858,15.356,0,21.213l87.508,87.508L433.36,475.787z"/>
	<path d="M135,0h-30c-8.284,0-15,6.716-15,15s6.716,15,15,15h30c8.284,0,15-6.716,15-15S143.284,0,135,0z"/>
	<path d="M195,30h30c8.284,0,15-6.716,15-15s-6.716-15-15-15h-30c-8.284,0-15,6.716-15,15S186.716,30,195,30z"/>
	<path d="M285,30h30c8.284,0,15-6.716,15-15s-6.716-15-15-15h-30c-8.284,0-15,6.716-15,15S276.716,30,285,30z"/>
	<path d="M135,390h-30c-8.284,0-15,6.716-15,15s6.716,15,15,15h30c8.284,0,15-6.716,15-15S143.284,390,135,390z"/>
	<path d="M375,30h15v15c0,8.284,6.716,15,15,15s15-6.716,15-15V15c0-8.284-6.716-15-15-15h-30c-8.284,0-15,6.716-15,15   S366.716,30,375,30z"/>
	<path d="M45,0H15C6.716,0,0,6.716,0,15v30c0,8.284,6.716,15,15,15s15-6.716,15-15V30h15c8.284,0,15-6.716,15-15S53.284,0,45,0z"/>
	<path d="M15,150c8.284,0,15-6.716,15-15v-30c0-8.284-6.716-15-15-15S0,96.716,0,105v30C0,143.284,6.716,150,15,150z"/>
	<path d="M15,240c8.284,0,15-6.716,15-15v-30c0-8.284-6.716-15-15-15s-15,6.716-15,15v30C0,233.284,6.716,240,15,240z"/>
	<path d="M15,330c8.284,0,15-6.716,15-15v-30c0-8.284-6.716-15-15-15s-15,6.716-15,15v30C0,323.284,6.716,330,15,330z"/>
	<path d="M405,90c-8.284,0-15,6.716-15,15v30c0,8.284,6.716,15,15,15s15-6.716,15-15v-30C420,96.716,413.284,90,405,90z"/>
	<path d="M45,390H30v-15c0-8.284-6.716-15-15-15s-15,6.716-15,15v30c0,8.284,6.716,15,15,15h30c8.284,0,15-6.716,15-15   S53.284,390,45,390z"/>
</g>















</svg>
